<?xml version="1.0" encoding="UTF-8" standalone="no"?>
<!DOCTYPE svg PUBLIC "-//W3C//DTD SVG 1.1//EN" "http://www.w3.org/Graphics/SVG/1.1/DTD/svg11.dtd">
<svg width="100%" height="100%" viewBox="0 0 301 179" version="1.1" xmlns="http://www.w3.org/2000/svg" xmlns:xlink="http://www.w3.org/1999/xlink" xml:space="preserve" xmlns:serif="http://www.serif.com/" style="fill-rule:evenodd;clip-rule:evenodd;stroke-linejoin:round;stroke-miterlimit:1.41421;">
    <g transform="matrix(1,0,0,1,-8.51619,-375.706)">
        <g>
            <g transform="matrix(1,0,0,1,-88.2881,0.5)">
                <g id="path4198" transform="matrix(2.11533,0,0,-2.11533,283.768,389.476)">
                    <path d="M0,0C0,3.594 2.912,6.51 6.506,6.51C10.096,6.51 13.013,3.594 13.013,0C13.013,-3.59 10.096,-6.503 6.506,-6.503C2.912,-6.503 0,-3.59 0,0" style="fill-rule:nonzero;stroke:black;stroke-width:0.47px;"/>
                </g>
                <g id="path4216" transform="matrix(2.62008,0,0,-2.14889,252.156,403.232)">
                    <path d="M12.065,-1.241L23.635,-1.241L23.762,-54.019L12.065,-54.091L12.065,-1.241Z" style="fill-rule:nonzero;stroke:black;stroke-width:0.42px;"/>
                </g>
                <g id="path4220" transform="matrix(2.11533,0,0,-2.10605,321.838,405.549)">
                    <path d="M0,0L14.035,0L14.035,-6.001L14.203,-6.001C15.612,-3.578 17.147,-1.791 18.812,-0.633C20.473,0.523 22.63,1.1 25.278,1.1C28.602,1.1 31.167,0.015 32.973,-2.155C34.774,-4.326 35.676,-7.101 35.676,-10.483L35.676,-54.019L21.134,-54.019L21.134,-17.078C21.134,-15.555 20.937,-14.316 20.546,-13.356C20.149,-12.398 19.246,-11.918 17.84,-11.918C17.05,-11.918 16.43,-12.118 15.979,-12.51C15.529,-12.906 15.202,-13.371 15.009,-13.906C14.81,-14.442 14.682,-14.977 14.629,-15.513C14.57,-16.049 14.542,-16.57 14.542,-17.078L14.542,-54.019L0,-54.019L0,0Z" style="fill-rule:nonzero;stroke:black;stroke-width:0.47px;"/>
                </g>
                <g id="path4210" transform="matrix(2.11533,0,0,-2.13729,256.157,377.331)">
                    <path d="M-48.524,-66.432L-48.524,0.011L-62.586,0.011C-63.376,-2.301 -64.967,-4.019 -67.358,-5.148C-69.756,-6.275 -72.335,-6.921 -75.096,-7.09L-75.096,-16.559L-64.445,-16.559L-64.445,-66.432L-48.524,-66.432Z" style="fill-rule:nonzero;stroke:black;stroke-width:0.47px;"/>
                </g>
                <g id="path4202" transform="matrix(2.11533,0,0,-2.11533,254.387,485.167)">
                    <path d="M0,0C0,-1.445 -0.306,-2.635 -0.918,-3.578C-1.526,-4.522 -2.554,-4.995 -3.996,-4.995C-5.44,-4.995 -6.466,-4.522 -7.074,-3.578C-7.686,-2.635 -7.992,-1.445 -7.992,0L-7.992,6.826L-22.309,6.826L-22.309,0.586C-22.309,-0.656 -22.218,-1.813 -22.06,-2.916L-39.23,-2.916C-39.119,-2.469 -38.898,-1.859 -38.567,-1.082C-38.288,-0.361 -38.011,0.251 -37.733,0.75C-36.512,2.802 -35.166,4.631 -33.694,6.244C-32.226,7.853 -30.326,9.766 -27.995,11.985C-26.053,13.817 -24.458,15.384 -23.21,16.687C-21.96,17.991 -20.81,19.479 -19.754,21.144C-18.702,22.807 -17.869,24.694 -17.256,26.802C-16.885,28.091 -16.639,29.487 -16.494,30.964L-7.742,30.964L-7.742,35.126C-7.742,38.343 -6.494,39.953 -3.996,39.953C-2.666,39.953 -1.749,39.55 -1.25,38.749C-0.75,37.942 -0.5,36.848 -0.5,35.46L-0.5,30.049C-0.5,28.494 -1.125,27.262 -2.374,26.346C-3.621,25.427 -5.106,24.97 -6.825,24.97L-9.408,24.97L-9.408,14.15C-7.409,14.15 -5.799,13.997 -4.577,13.692C-3.358,13.388 -2.417,12.885 -1.749,12.197C-1.084,11.501 -0.626,10.57 -0.376,9.406C-0.127,8.239 0,6.662 0,4.659L0,0ZM14.522,10.072C14.327,11.624 13.955,13.014 13.402,14.233C12.178,17.23 10.043,19.229 6.99,20.226C9.931,21.614 11.886,23.458 12.858,25.761C13.827,28.064 14.316,31.049 14.316,34.71C14.316,40.649 12.746,44.891 9.614,47.446C6.478,49.997 2.026,51.274 -3.746,51.274C-10.296,51.274 -14.985,49.777 -17.814,46.78C-18.367,46.195 -18.846,45.538 -19.291,44.85C-19.801,45.573 -20.36,46.255 -21.003,46.864C-24.112,49.802 -28.55,51.274 -34.32,51.274C-40.757,51.274 -45.419,49.761 -48.303,46.738C-51.189,43.714 -52.798,38.925 -53.13,32.379L-53.13,27.217L-39.315,27.217L-39.315,33.794C-39.315,35.736 -39.05,37.249 -38.522,38.332C-37.996,39.411 -36.9,39.953 -35.235,39.953C-33.571,39.953 -32.476,39.411 -31.947,38.332C-31.419,37.249 -31.158,35.736 -31.158,33.794C-31.158,30.519 -31.894,27.774 -33.362,25.555C-34.834,23.334 -37.15,20.726 -40.314,17.73C-42.422,15.675 -44.183,13.873 -45.599,12.32C-47.015,10.763 -48.375,8.891 -49.679,6.701C-50.981,4.509 -52.064,1.929 -52.923,-1.041C-53.785,-4.01 -54.298,-7.38 -54.466,-11.151L-54.466,-16.688L-15.253,-16.688L-15.253,-13.649C-12.246,-15.415 -8.418,-16.314 -3.746,-16.314C-0.14,-16.314 2.868,-15.856 5.285,-14.939C7.698,-14.025 9.597,-12.665 10.984,-10.862C12.373,-9.058 13.358,-6.865 13.942,-4.285C14.522,-1.705 14.815,1.359 14.815,4.912C14.815,6.799 14.718,8.518 14.522,10.072" style="fill:rgb(50,124,203);fill-rule:nonzero;stroke:rgb(50,124,203);stroke-width:0.47px;"/>
                </g>
            </g>
            <g transform="matrix(2.42157,0,0,2.42157,22.9088,-868.724)">
                <text x="58.535px" y="587.573px" style="font-family:'Arial-BoldMT', 'Arial', sans-serif;font-weight:700;font-size:12.389px;fill:rgb(50,124,203);">IN NHANH</text>
            </g>
        </g>
    </g>
</svg>
